<svg width="91" height="58" viewBox="0 0 91 58" fill="none" xmlns="http://www.w3.org/2000/svg">
<path d="M64.6666 57.6319C62.4787 57.6319 60.5843 57.2317 58.9834 56.4312C57.3825 55.5774 56.1552 54.4034 55.3014 52.9093C54.5009 51.4151 54.1007 49.6808 54.1007 47.7064C54.1007 45.3584 54.6343 43.4373 55.7016 41.9432C56.8222 40.449 58.2363 39.2483 59.944 38.3412C61.6516 37.434 63.4392 36.6869 65.3069 36.0999C67.228 35.4596 69.0423 34.8726 70.75 34.3389C72.4576 33.7519 73.845 33.0849 74.9123 32.3378C76.0329 31.5907 76.5932 30.6035 76.5932 29.3762V24.4134C76.5932 22.1722 76.2464 20.4646 75.5526 19.2906C74.9123 18.1166 74.0318 17.3428 72.9112 16.9693C71.7906 16.5424 70.5365 16.3289 69.1491 16.3289C67.815 16.3289 66.3742 16.5157 64.8267 16.8892C63.3325 17.2628 62.1318 18.0365 61.2247 19.2105C62.2386 19.424 63.1191 19.9576 63.8661 20.8114C64.6132 21.6652 64.9868 22.7592 64.9868 24.0932C64.9868 25.4273 64.5599 26.4946 63.7061 27.295C62.8522 28.0421 61.7583 28.4156 60.4242 28.4156C58.8767 28.4156 57.7294 27.9354 56.9823 26.9748C56.2886 25.9609 55.9417 24.8403 55.9417 23.613C55.9417 22.2255 56.2886 21.1049 56.9823 20.2511C57.676 19.3973 58.5565 18.5968 59.6238 17.8498C60.8511 16.996 62.4253 16.2756 64.3464 15.6886C66.3208 15.0482 68.5354 14.728 70.9901 14.728C73.178 14.728 75.0457 14.9948 76.5932 15.5285C78.1407 16.0087 79.4215 16.7291 80.4354 17.6897C81.8228 18.9704 82.73 20.5446 83.1569 22.4123C83.5838 24.2266 83.7972 26.4145 83.7972 28.976V51.2283C83.7972 52.5624 83.984 53.5229 84.3575 54.1099C84.7844 54.6969 85.4248 54.9904 86.2786 54.9904C86.8656 54.9904 87.4259 54.857 87.9595 54.5902C88.4932 54.3234 89.1335 53.8965 89.8806 53.3095L90.7611 54.6702C89.6405 55.5241 88.5732 56.2444 87.5593 56.8314C86.5454 57.3651 85.1847 57.6319 83.477 57.6319C81.9295 57.6319 80.6488 57.3651 79.6349 56.8314C78.621 56.2978 77.8472 55.524 77.3136 54.5102C76.8334 53.4429 76.5932 52.1088 76.5932 50.5079C75.1524 52.9093 73.4181 54.6969 71.3903 55.8709C69.4159 57.0449 67.1746 57.6319 64.6666 57.6319ZM67.5482 54.4301C69.3092 54.4301 70.9367 53.9232 72.4309 52.9093C73.9784 51.8954 75.3659 50.3745 76.5932 48.3467V32.658C75.9529 33.5652 75.019 34.3389 73.7917 34.9793C72.5643 35.5663 71.2302 36.18 69.7894 36.8203C68.3486 37.4073 66.9612 38.1277 65.6271 38.9815C64.3464 39.782 63.2791 40.8492 62.4253 42.1833C61.5715 43.5174 61.1446 45.2517 61.1446 47.3862C61.1446 49.5207 61.7049 51.2283 62.8256 52.509C63.9995 53.7898 65.5738 54.4301 67.5482 54.4301Z" fill="black"/>
<path d="M26.4147 0L45.9456 50.348C46.746 52.3758 47.6532 53.7366 48.6671 54.4303C49.681 55.0706 50.6148 55.4175 51.4686 55.4709V57.0717C50.4014 56.965 49.094 56.9117 47.5464 56.9117C45.9989 56.8583 44.4514 56.8316 42.9039 56.8316C40.8227 56.8316 38.875 56.8583 37.0606 56.9117C35.2463 56.9117 33.7788 56.965 32.6582 57.0717V55.4709C35.3797 55.3641 37.114 54.9105 37.8611 54.1101C38.6081 53.2563 38.448 51.4686 37.3808 48.7471L22.4925 8.96499L23.7732 7.92441L9.84547 44.1045C8.99167 46.239 8.48472 48.0534 8.32463 49.5476C8.16454 50.9884 8.29795 52.1357 8.72485 52.9895C9.20512 53.8433 9.97888 54.457 11.0461 54.8305C12.1668 55.204 13.5542 55.4175 15.2085 55.4709V57.0717C13.7143 56.965 12.1401 56.9117 10.4858 56.9117C8.88494 56.8583 7.39078 56.8316 6.00334 56.8316C4.66926 56.8316 3.52196 56.8583 2.56142 56.9117C1.65425 56.9117 0.800445 56.965 0 57.0717V55.4709C1.06726 55.204 2.1612 54.5904 3.28182 53.6298C4.40245 52.6159 5.41635 50.9083 6.32352 48.507L25.134 0C25.3474 0 25.5609 0 25.7743 0C25.9878 0 26.2012 0 26.4147 0ZM36.1801 34.0189V35.6198H12.3269L13.1273 34.0189H36.1801Z" fill="black"/>
</svg>
